# xmcd
#
# Track frame offsets: 
#        150
#        18302
#        29107
#        44805
#        68787
#        86532
#        104637
#        121057
#        143570
#        163870
#        186177
#        203315
#
# Disc length: 2990 seconds
#
# Revision: 0
# Processed by: cddbd v1.5.2PL0 Copyright (c) Steve Scherf et al.
# Submitted via: ExactAudioCopyFreeDBPlugin 1.0
#
DISCID=a50bac0c
DTITLE=CARL CLEVES and PARISSA BOUAS - Out Of Australia
DYEAR=2010
DGENRE=Country
TTITLE0=Into The Light
TTITLE1=Eclipse Of The Sun
TTITLE2=Don't Flowers Grow
TTITLE3=The Bethlehem Bell Ringer
TTITLE4=Way Down In The Mines
TTITLE5=House Of Sorrow
TTITLE6=Mother's Song
TTITLE7=The Coniston Massacre
TTITLE8=Graceful
TTITLE9=Zeco
TTITLE10=Sharpening A Knife
TTITLE11=Carmen
EXTD=
EXTT0=
EXTT1=
EXTT2=
EXTT3=
EXTT4=
EXTT5=
EXTT6=
EXTT7=
EXTT8=
EXTT9=
EXTT10=
EXTT11=
PLAYORDER=
